# Blender 4.0.2
# www.blender.org
o peacetoler_pipe.001
v -0.000000 0.092716 -0.286125
v -0.000000 0.114470 -0.352619
v -0.000000 0.034386 -0.298249
v -0.000000 0.046854 -0.367300
v 0.000000 -0.014511 -0.300007
v 0.000000 0.000000 -0.370139
v 0.000000 -0.056046 -0.366265
v 0.000000 -0.063010 -0.293538
v 0.000000 -0.114388 -0.352100
v 0.000000 -0.092705 -0.285317
v -0.200000 0.092705 -0.285317
v -0.199862 0.068020 -0.292255
v -0.199705 0.038517 -0.297740
v -0.199877 -0.000000 -0.300113
v -0.200099 -0.043279 -0.297224
v -0.199787 -0.092778 -0.285589
v -0.299940 0.049245 -0.245468
v -0.299832 0.012221 -0.249777
v -0.299909 -0.020674 -0.249393
v -0.299799 -0.052462 -0.244530
v -0.299769 -0.077310 -0.237989
v -4.700232 0.056437 -0.243628
v -4.699874 0.023793 -0.249091
v -4.699962 -0.007509 -0.250074
v -4.700060 -0.049246 -0.245468
v -4.800572 0.092831 -0.286097
v -4.800068 0.041714 -0.297138
v -4.800247 -0.001057 -0.300441
v -4.800173 -0.054899 -0.295359
v -5.000000 0.092705 -0.285317
v -5.000000 0.063009 -0.293538
v -5.000000 0.012460 -0.300170
v -5.000000 -0.043399 -0.297206
v -5.000000 -0.092772 -0.285589
v -5.000000 0.114349 -0.352887
v -5.000000 0.042409 -0.367840
v -5.000000 -0.026855 -0.369766
v -5.000000 -0.114350 -0.352887
v -4.800000 0.114336 -0.351891
v -4.800168 0.083855 -0.360452
v -4.800365 0.047503 -0.367212
v -4.800265 -0.017890 -0.370191
v -4.800169 -0.077990 -0.361806
v -4.800264 -0.114421 -0.352228
v -4.700078 0.063036 -0.314199
v -4.700213 0.015622 -0.319718
v -4.700114 -0.026471 -0.319224
v -4.699889 -0.069150 -0.312632
v -0.299908 0.060263 -0.314744
v -0.299793 0.000914 -0.320476
v -0.299853 -0.044579 -0.316949
v -0.299584 -0.099020 -0.305163
v -0.199817 0.083805 -0.360472
v -0.200000 0.114336 -0.351891
v -0.199916 0.051461 -0.366467
v -0.200054 0.011089 -0.370111
v -0.199881 -0.018273 -0.369639
v -0.199606 -0.073395 -0.363093
v -4.700000 0.077254 -0.237764
v -4.700000 0.098885 -0.304338
v -0.300000 0.077254 -0.237764
v -0.300000 0.098885 -0.304338
v -4.800000 -0.092705 -0.285317
v -4.700000 -0.098886 -0.304338
v -4.700000 -0.077254 -0.237764
v -0.200000 -0.114336 -0.351891
vn 1.0000 -0.0000 -0.0000
vn 0.0039 -0.2705 0.9627
vn -0.0076 -0.1828 0.9831
vn -0.0017 -0.2035 0.9791
vn 0.0013 -0.0615 0.9981
vn -0.0031 -0.0359 0.9993
vn 0.0043 0.0666 0.9978
vn -0.0052 0.1322 0.9912
vn 0.0046 0.2288 0.9735
vn -0.0014 0.2668 0.9638
vn 0.4475 -0.2363 0.8625
vn 0.4469 -0.2397 0.8619
vn 0.4514 -0.1019 0.8865
vn 0.4427 -0.1616 0.8820
vn 0.4435 -0.0571 0.8945
vn 0.4420 0.0575 0.8952
vn 0.4507 0.0094 0.8926
vn 0.4471 0.2282 0.8649
vn 0.4420 0.2079 0.8726
vn 0.4531 0.1364 0.8810
vn -0.0000 -0.2711 0.9625
vn -0.0000 -0.2652 0.9642
vn 0.0001 -0.1651 0.9863
vn -0.0001 -0.1156 0.9933
vn 0.0001 -0.0314 0.9995
vn -0.0001 0.0117 0.9999
vn 0.0002 0.1097 0.9940
vn -0.0001 0.1512 0.9885
vn -0.0000 0.2545 0.9671
vn 0.0001 0.2652 0.9642
vn -0.4411 -0.1936 0.8763
vn -0.4504 -0.2374 0.8607
vn -0.4412 -0.0673 0.8949
vn -0.4494 -0.1522 0.8803
vn -0.4500 -0.0268 0.8926
vn -0.4483 0.0991 0.8884
vn -0.4429 0.0837 0.8926
vn -0.4466 0.2278 0.8652
vn -0.4440 0.2367 0.8642
vn 0.0039 -0.2668 0.9637
vn -0.0049 -0.2112 0.9774
vn 0.0040 -0.1301 0.9915
vn -0.0039 -0.0770 0.9970
vn 0.0049 0.0530 0.9986
vn -0.0038 0.0940 0.9956
vn 0.0042 0.2290 0.9734
vn -0.0014 0.2567 0.9665
vn -1.0000 -0.0000 -0.0000
vn 0.0048 0.2704 -0.9627
vn -0.0093 0.1828 -0.9831
vn -0.0021 0.2035 -0.9791
vn 0.0020 0.0455 -0.9990
vn -0.0034 0.0278 -0.9996
vn 0.0041 -0.1382 -0.9904
vn 0.0031 -0.2543 -0.9671
vn -0.0094 -0.1894 -0.9819
vn 0.4477 0.2362 -0.8624
vn 0.4525 0.1018 -0.8859
vn 0.4415 0.1617 -0.8826
vn 0.4469 0.2396 -0.8619
vn 0.4389 0.0416 -0.8976
vn 0.4529 -0.0094 -0.8915
vn 0.4443 -0.2422 -0.8625
vn 0.4458 -0.1343 -0.8850
vn 0.4417 -0.1233 -0.8887
vn 0.4482 -0.2284 -0.8643
vn -0.0000 0.2601 -0.9656
vn -0.0000 0.2652 -0.9642
vn 0.0001 0.0961 -0.9954
vn -0.0001 0.1156 -0.9933
vn -0.0002 -0.0117 -0.9999
vn 0.0002 -0.0773 -0.9970
vn 0.0002 -0.2116 -0.9774
vn -0.0001 -0.1526 -0.9883
vn -0.0002 -0.2687 -0.9632
vn -0.4488 0.2315 -0.8631
vn -0.4469 0.2396 -0.8619
vn -0.4507 0.0818 -0.8889
vn -0.4519 0.0849 -0.8880
vn -0.4417 0.1648 -0.8819
vn -0.4441 -0.0170 -0.8958
vn -0.4411 -0.1080 -0.8909
vn -0.4510 -0.0684 -0.8899
vn -0.4422 -0.2327 -0.8662
vn -0.4551 -0.1905 -0.8698
vn -0.0037 0.2705 -0.9627
vn 0.0058 0.2122 -0.9772
vn 0.0001 0.1822 -0.9833
vn 0.0032 0.0605 -0.9982
vn -0.0021 0.0899 -0.9959
vn 0.0038 -0.0690 -0.9976
vn -0.0010 -0.0161 -0.9999
vn -0.0055 -0.1180 -0.9930
vn 0.0051 -0.2359 -0.9718
vn -0.0011 -0.2639 -0.9645
vn 0.0006 0.9505 0.3107
vn -0.0015 0.9523 0.3051
vn -0.0012 0.9511 0.3090
vn -0.0009 0.9505 0.3107
vn -0.0000 0.9511 0.3090
vn 0.0012 0.9504 0.3109
vn 0.0005 0.9511 0.3090
vn -0.0001 -0.9512 0.3087
vn -0.0013 -0.9522 0.3053
vn -0.0000 -0.9511 0.3090
vn -0.0000 -0.9515 0.3075
vn -0.0008 -0.9515 0.3075
vn -0.0012 -0.9510 0.3092
vn -0.0001 -0.9511 0.3088
vn 0.0001 -0.9510 0.3092
s 0
f 3//1 2//1 1//1
f 3//1 4//1 2//1
f 5//1 6//1 3//1
f 3//1 6//1 4//1
f 5//1 7//1 6//1
f 8//1 7//1 5//1
f 10//1 9//1 8//1
f 8//1 9//1 7//1
f 1//2 11//2 12//2
f 1//3 12//3 13//3
f 3//4 1//4 13//4
f 3//5 13//5 14//5
f 5//6 3//6 14//6
f 5//7 14//7 15//7
f 8//8 5//8 15//8
f 8//9 15//9 16//9
f 10//10 8//10 16//10
f 12//11 61//11 17//11
f 12//12 11//12 61//12
f 13//13 17//13 18//13
f 13//14 12//14 17//14
f 18//15 14//15 13//15
f 19//16 15//16 14//16
f 19//17 14//17 18//17
f 20//18 21//18 16//18
f 20//19 16//19 15//19
f 20//20 15//20 19//20
f 17//21 59//21 22//21
f 17//22 61//22 59//22
f 17//23 22//23 23//23
f 18//24 17//24 23//24
f 18//25 23//25 24//25
f 19//26 18//26 24//26
f 19//27 24//27 25//27
f 20//28 19//28 25//28
f 21//29 20//29 25//29
f 21//30 25//30 65//30
f 22//31 26//31 27//31
f 22//32 59//32 26//32
f 23//33 27//33 28//33
f 27//34 23//34 22//34
f 28//35 24//35 23//35
f 29//36 25//36 24//36
f 29//37 24//37 28//37
f 29//38 63//38 65//38
f 29//39 65//39 25//39
f 26//40 30//40 31//40
f 27//41 26//41 31//41
f 27//42 31//42 32//42
f 28//43 27//43 32//43
f 28//44 32//44 33//44
f 29//45 28//45 33//45
f 29//46 33//46 34//46
f 63//47 29//47 34//47
f 35//48 31//48 30//48
f 36//48 31//48 35//48
f 36//48 32//48 31//48
f 37//48 32//48 36//48
f 37//48 33//48 32//48
f 38//48 33//48 37//48
f 38//48 34//48 33//48
f 35//49 39//49 40//49
f 35//50 40//50 41//50
f 36//51 35//51 41//51
f 36//52 41//52 42//52
f 37//53 36//53 42//53
f 37//54 42//54 43//54
f 38//55 43//55 44//55
f 38//56 37//56 43//56
f 40//57 60//57 45//57
f 41//58 45//58 46//58
f 41//59 40//59 45//59
f 40//60 39//60 60//60
f 46//61 42//61 41//61
f 47//62 42//62 46//62
f 43//63 48//63 64//63
f 43//64 47//64 48//64
f 47//65 43//65 42//65
f 43//66 64//66 44//66
f 45//67 62//67 49//67
f 45//68 60//68 62//68
f 46//69 49//69 50//69
f 46//70 45//70 49//70
f 47//71 46//71 50//71
f 47//72 50//72 51//72
f 48//73 51//73 52//73
f 48//74 47//74 51//74
f 64//75 48//75 52//75
f 53//76 49//76 62//76
f 53//77 62//77 54//77
f 50//78 55//78 56//78
f 55//79 50//79 49//79
f 55//80 49//80 53//80
f 57//81 50//81 56//81
f 51//82 57//82 58//82
f 51//83 50//83 57//83
f 58//84 66//84 52//84
f 58//85 52//85 51//85
f 53//86 54//86 2//86
f 53//87 2//87 4//87
f 55//88 53//88 4//88
f 56//89 4//89 6//89
f 56//90 55//90 4//90
f 57//91 6//91 7//91
f 57//92 56//92 6//92
f 58//93 57//93 7//93
f 58//94 7//94 9//94
f 66//95 58//95 9//95
f 26//96 39//96 30//96
f 30//97 39//97 35//97
f 59//98 60//98 26//98
f 26//99 60//99 39//99
f 59//100 61//100 60//100
f 61//100 62//100 60//100
f 61//100 11//100 62//100
f 11//100 54//100 62//100
f 1//101 2//101 11//101
f 11//102 2//102 54//102
f 44//103 63//103 34//103
f 44//104 34//104 38//104
f 64//105 65//105 63//105
f 64//103 63//103 44//103
f 21//105 65//105 64//105
f 52//106 21//106 64//106
f 16//107 21//107 52//107
f 66//108 16//108 52//108
f 9//109 10//109 16//109
f 9//110 16//110 66//110
